<svg width="101" height="36" viewBox="0 0 101 36" fill="none" xmlns="http://www.w3.org/2000/svg">
<g clip-path="url(#clip0)">
<path fill-rule="evenodd" clip-rule="evenodd" d="M33.2849 8.59693C31.7449 6.08006 29.6032 3.97214 27.061 2.47366C24.3939 0.901925 21.2821 0 17.9566 0C14.6312 0 11.5192 0.901725 8.85229 2.47366C6.30988 3.97204 4.16843 6.08006 2.62823 8.59683C5.42552 9.56461 7.6456 11.7509 8.66917 14.508C9.17103 13.1564 9.95899 11.9442 10.9599 10.9452C12.7524 9.15596 15.2259 8.04956 17.9566 8.04956C20.6881 8.04956 23.1625 9.15666 24.9549 10.9468C25.9547 11.9455 26.7423 13.1568 27.2438 14.5072C28.2696 11.7415 30.492 9.56521 33.2849 8.59693Z" fill="#B1B3B3"/>
<path fill-rule="evenodd" clip-rule="evenodd" d="M26.6252 22.7547C26.1746 23.5679 25.613 24.3106 24.9612 24.9627C23.1684 26.755 20.6917 27.8636 17.9566 27.8636C15.2209 27.8636 12.7441 26.7547 10.9514 24.9619C9.15856 23.1691 8.04966 20.6922 8.04966 17.9567C8.04966 14.174 5.60824 10.8456 2.00982 9.69092C1.3937 10.8768 0.906216 12.1384 0.565824 13.4577C0.196491 14.889 0 16.3966 0 17.9568C0 22.9153 2.00992 27.4046 5.25937 30.654C8.50881 33.9034 12.998 35.9133 17.9566 35.9133C20.3077 35.9133 22.5369 34.9751 24.1785 33.2907C25.7008 31.7288 26.6368 29.5966 26.6276 27.247L26.6251 22.7548L26.6252 22.7547Z" fill="#003D64"/>
<path fill-rule="evenodd" clip-rule="evenodd" d="M35.9131 17.9567C35.9131 16.3965 35.7165 14.8889 35.3472 13.4576C35.0072 12.1385 34.5197 10.8767 33.9032 9.69092C30.3197 10.8298 27.8699 14.1714 27.8612 17.9341V27.2444C27.8716 30.0963 26.647 32.8029 24.5038 34.6831C26.8659 33.7577 28.9847 32.3464 30.7366 30.572C33.9373 27.3299 35.913 22.8748 35.913 17.9567H35.9131Z" fill="#D52023"/>
<path fill-rule="evenodd" clip-rule="evenodd" d="M51.2578 27.9347C53.5405 27.9347 55.4155 27.3914 56.8558 26.2771C58.2961 25.163 59.0297 23.6955 59.0297 21.8205C59.0297 20.1901 58.5133 18.9128 57.4807 18.0161C56.448 17.1194 55.0079 16.3585 53.1871 15.7607C52.3992 15.5161 51.149 15.19 50.5786 14.9998L49.709 14.7009C49.1383 14.4564 48.9208 14.1846 48.9208 13.8312C48.9208 12.989 49.7632 12.5813 51.421 12.5813C52.5079 12.5813 53.622 12.7715 54.7906 13.1248C55.9591 13.4781 56.9644 13.9129 57.8068 14.4292V9.72798C55.8229 8.66818 53.6762 8.15186 51.3664 8.15186C46.8011 8.15186 43.8933 10.1898 43.8933 13.8586C43.8933 14.9727 44.2194 15.9782 44.5728 16.6576C44.9804 17.3369 45.8772 17.989 46.4207 18.3967C46.7197 18.5869 47.1272 18.7772 47.6707 18.9945L48.9206 19.4836L50.3066 19.8912L52.0186 20.4076C52.3446 20.5162 53.024 20.7066 53.2414 20.8968C53.6761 21.1956 53.9751 21.4401 53.9751 22.0108C53.9751 23.0162 52.9969 23.5054 51.0673 23.5054C49.8445 23.5054 48.5403 23.2608 47.1543 22.7446C45.7685 22.2282 44.6814 21.6304 43.8932 20.8968V25.8969C45.8771 27.2556 48.3228 27.9348 51.2576 27.9348L51.2578 27.9347Z" fill="#003D64"/>
<path fill-rule="evenodd" clip-rule="evenodd" d="M94.2065 27.5598C96.2445 27.5598 97.9023 27.0707 99.1251 26.0652C100.375 25.0597 101 23.7283 101 22.0978C101 20.712 100.62 19.5977 99.886 18.701C99.1524 17.8043 98.3099 17.2607 97.386 17.0434C98.5545 16.5 99.6142 15.1955 99.6142 13.3476C99.6142 10.2226 97.1686 8.53784 93.6904 8.53784H84.4242V27.5598H94.2067H94.2065ZM89.3151 19.4348H93.2553C94.6956 19.4348 95.6467 20.1957 95.6467 21.4727C95.6467 22.75 94.7499 23.4837 93.2553 23.4837H89.3151V19.4348ZM89.3151 12.5054H92.9566C94.1522 12.5054 94.9131 13.1304 94.9131 14.1902C94.9131 15.1956 94.1522 15.8206 92.9566 15.8206H89.3151V12.5054Z" fill="#003D64"/>
<path fill-rule="evenodd" clip-rule="evenodd" d="M77.4204 32.4726C78.5415 32.4726 79.5534 32.2538 80.4832 31.8437V27.7687C79.7997 28.1516 79.0338 28.343 78.2135 28.343C77.1469 28.343 76.2718 27.9602 75.6155 27.1672C77.3929 26.374 78.7879 25.1435 79.827 23.5298C80.8661 21.9164 81.3859 20.1114 81.3859 18.115C81.3859 15.3529 80.4285 13.001 78.5143 11.0593C76.6001 9.11751 74.1934 8.1604 71.2945 8.1604C68.3957 8.1604 65.9891 9.11761 64.0748 11.0593C62.1605 13.001 61.2031 15.3528 61.2031 18.115C61.2031 20.713 62.051 22.9829 63.7739 24.8699C65.4969 26.7568 67.6846 27.7962 70.3374 28.0149C72.9902 31.2967 75.1232 32.4726 77.4204 32.4726ZM67.6845 21.9984C66.7274 20.9865 66.2623 19.674 66.2623 18.1151C66.2623 16.5562 66.7274 15.2436 67.6845 14.2318C68.6417 13.2199 69.8451 12.7005 71.2944 12.7005C72.7439 12.7005 73.9197 13.22 74.8769 14.2318C75.8342 15.2437 76.3264 16.5562 76.3264 18.1151C76.3264 19.674 75.8342 20.9866 74.8769 21.9984C73.9196 23.0103 72.7438 23.5298 71.2944 23.5298C69.845 23.5298 68.6416 23.0102 67.6845 21.9984Z" fill="#003D64"/>
</g>
<defs>
<clipPath id="clip0">
<rect width="101" height="35.9131" fill="white"/>
</clipPath>
</defs>
</svg>
